<svg xmlns="http://www.w3.org/2000/svg" viewBox="0 0 64 64">
  <defs>
    <linearGradient id="bg" x1="0" y1="0" x2="1" y2="1">
      <stop offset="0%" stop-color="#06b6d4" />
      <stop offset="100%" stop-color="#0f172a" />
    </linearGradient>
  </defs>
  <rect width="64" height="64" rx="16" fill="url(#bg)" />
  <path d="M17 22.5c0-2.5 2-4.5 4.5-4.5h21c2.5 0 4.5 2 4.5 4.5v19c0 2.5-2 4.5-4.5 4.5h-21c-2.5 0-4.5-2-4.5-4.5z" fill="#fff" opacity=".16"/>
  <path d="M23 20h18c3.3 0 6 2.7 6 6v15c0 1.7-1.3 3-3 3H20c-1.7 0-3-1.3-3-3V26c0-3.3 2.7-6 6-6z" fill="#fff"/>
  <path d="M24.5 27h15l-1.6 9.2c-.2 1.1-1.1 1.8-2.2 1.8h-7.4c-1.1 0-2-.8-2.2-1.8z" fill="#06b6d4"/>
  <path d="M28 23.5a4 4 0 0 1 8 0" fill="none" stroke="#0f172a" stroke-linecap="round" stroke-width="2.5"/>
  <circle cx="28.5" cy="48" r="2.5" fill="#fff"/>
  <circle cx="39.5" cy="48" r="2.5" fill="#fff"/>
</svg>
